<svg width="56" height="11" viewBox="0 0 56 11" fill="none" xmlns="http://www.w3.org/2000/svg">
<path d="M31.2739 7.66286C31.2739 9.10513 30.2706 9.98304 28.3267 9.98304C26.6837 9.98304 25.9061 9.56917 25.9061 9.56917C25.9061 9.56917 25.9312 9.33088 25.9312 8.56585C25.9312 7.72557 25.9061 7.33678 25.9061 7.33678C26.4956 8.31502 27.1979 8.54076 27.9755 8.54076C28.6778 8.54076 28.9663 8.32756 28.9663 7.9764C28.9663 7.63778 28.7907 7.51236 28.3894 7.32424L27.4613 6.88529C26.5081 6.43379 25.9061 5.86942 25.9061 4.71561C25.9061 3.3235 26.8468 2.48322 28.6778 2.48322C30.4085 2.48322 30.9854 2.88455 30.9854 2.88455C30.9854 2.88455 30.9604 3.16046 30.9604 3.96311C30.9604 4.75323 30.9854 5.10439 30.9854 5.10439C30.5089 4.3519 29.9821 3.91295 29.0791 3.91295C28.427 3.91295 28.1385 4.07599 28.1385 4.42715C28.1385 4.76577 28.3643 4.90373 28.8659 5.12947L29.7438 5.5308C30.697 5.96976 31.2739 6.53412 31.2739 7.66286Z" fill="white"/>
<path d="M25.4746 9.6695L25.5875 9.88271C25.5875 9.88271 25.0858 9.85762 23.8944 9.85762C22.6904 9.85762 22.1888 9.88271 22.1888 9.88271L22.3016 9.6695C22.5023 9.3058 22.6152 9.21801 22.6152 6.48396C22.6152 4.97898 22.565 4.60273 22.4521 4.37698C22.3643 4.18886 22.1386 4.01328 21.7247 4.01328C20.9095 4.01328 20.7339 4.71561 20.7339 4.71561V6.4965C20.7339 9.21801 20.8594 9.3058 21.06 9.6695L21.1729 9.88271C21.1729 9.88271 20.6712 9.85762 19.4798 9.85762C18.2758 9.85762 17.7741 9.88271 17.7741 9.88271L17.887 9.6695C18.0877 9.3058 18.2006 9.20546 18.2006 6.47142V5.93213C18.2006 3.76245 18.0877 3.41129 17.887 3.04759L17.7741 2.83438L20.6963 2.52084L20.6211 4.61527C20.9973 2.49576 22.4772 2.47068 23.004 2.47068C23.8944 2.47068 24.4964 2.74659 24.8225 3.33604C25.1235 3.86278 25.1611 4.46478 25.1611 5.93213V6.47142C25.1611 9.20546 25.274 9.3058 25.4746 9.6695Z" fill="white"/>
<path d="M17.1741 0.953155C17.1741 1.78089 16.547 1.95647 15.7193 1.95647C14.9166 1.95647 14.2519 1.79343 14.2519 1.00332C14.2519 0.175581 14.879 0 15.7068 0C16.5094 0 17.1741 0.16304 17.1741 0.953155ZM17.4124 9.88271C17.4124 9.88271 16.9107 9.85762 15.7193 9.85762C14.5153 9.85762 14.0137 9.88271 14.0137 9.88271L14.1265 9.6695C14.3272 9.3058 14.4401 9.20546 14.4401 6.47142V5.93213C14.4401 3.76245 14.3272 3.41129 14.1265 3.04759L14.0137 2.83438L17.0989 2.52084C17.0989 2.52084 16.986 3.22317 16.986 5.91959V6.47142C16.986 8.79159 17.0362 9.16784 17.2995 9.6695L17.4124 9.88271Z" fill="white"/>
<path d="M13.6737 6.12025C13.6737 8.67872 12.3443 10.0207 9.87359 10.0207C7.44054 10.0207 6.14877 8.69126 6.14877 6.37108C6.14877 3.81262 7.47816 2.47068 9.94884 2.47068C12.3819 2.47068 13.6737 3.80008 13.6737 6.12025ZM11.0274 6.18296C11.0274 4.33936 10.7264 3.92549 9.89868 3.92549C9.0584 3.92549 8.79502 4.59019 8.79502 6.30838C8.79502 8.15198 9.09602 8.56585 9.92376 8.56585C10.764 8.56585 11.0274 7.90115 11.0274 6.18296Z" fill="white"/>
<path d="M4.33936 8.47806C5.58097 8.47806 5.96976 7.8259 6.00738 7.76319C6.00738 8.75397 5.35522 10.0207 3.34858 10.0207C0.865364 10.0207 0 8.40281 0 6.40871C0 3.8377 1.25415 2.48322 3.63704 2.48322C5.27997 2.48322 5.88196 2.97234 5.88196 2.97234C5.88196 2.97234 5.85688 3.31096 5.85688 4.01328C5.85688 4.75323 5.88196 5.34268 5.88196 5.34268C5.1671 4.12615 4.70306 3.97566 4.12615 3.97566C2.92217 3.97566 2.64626 5.05423 2.64626 6.18296C2.64626 7.38695 2.92217 8.47806 4.33936 8.47806Z" fill="white"/>
<path d="M56 4.72815C56 5.64368 55.7241 6.93545 53.0653 6.93545C52.3755 6.93545 51.8989 6.84766 51.8989 6.84766C51.8989 7.24899 52.087 8.52822 53.7802 8.52822C55.4733 8.52822 55.8746 7.87606 55.9122 7.81336C55.9122 8.87938 55.1096 10.0207 52.9399 10.0207C50.2184 10.0207 49.2903 8.41535 49.2903 6.346C49.2903 3.97566 50.3312 2.47068 52.7768 2.47068C53.6673 2.47068 56 2.5083 56 4.72815ZM53.6046 4.6529C53.6046 4.2014 53.4415 3.6872 52.8019 3.6872C51.8362 3.6872 51.8237 4.54002 51.8237 5.61859C51.8237 5.61859 52.0243 5.66876 52.5135 5.66876C53.2409 5.66876 53.6046 5.45555 53.6046 4.6529Z" fill="white"/>
<path d="M48.8897 9.6695L49.0025 9.8827C49.0025 9.8827 48.5009 9.85762 47.3094 9.85762C46.1054 9.85762 45.6038 9.8827 45.6038 9.8827L45.7167 9.6695C45.9173 9.30579 46.0302 9.21801 46.0302 6.48396C46.0302 4.97898 45.98 4.60273 45.8671 4.37698C45.7794 4.18886 45.5536 4.01328 45.1397 4.01328C44.3245 4.01328 44.149 4.71561 44.149 4.71561V6.47142C44.149 9.20546 44.2744 9.30579 44.475 9.6695L44.5879 9.8827C44.5879 9.8827 44.0863 9.85762 42.8948 9.85762C41.6908 9.85762 41.1766 9.8827 41.1766 9.8827L41.2895 9.6695C41.4902 9.30579 41.603 9.21801 41.603 6.48396C41.603 4.97898 41.5529 4.60273 41.44 4.37698C41.3522 4.18886 41.1265 4.01328 40.7126 4.01328C39.8974 4.01328 39.7344 4.71561 39.7344 4.71561V6.47142C39.7344 9.19292 39.8472 9.30579 40.0479 9.6695L40.1608 9.8827C40.1608 9.8827 39.6591 9.85762 38.4677 9.85762C37.2637 9.85762 36.762 9.8827 36.762 9.8827L36.8749 9.6695C37.0756 9.30579 37.1884 9.20546 37.1884 6.47142V5.93213C37.1884 3.76245 37.0756 3.41129 36.8749 3.04759L36.762 2.83438L39.6967 2.52084L39.6215 4.61527C39.9977 2.49576 41.4776 2.47068 42.0044 2.47068C42.8948 2.47068 43.4968 2.75913 43.8229 3.33604C44.0737 3.77499 44.0988 4.31428 44.0988 4.31428C44.5252 2.49576 45.9173 2.45813 46.419 2.45813C47.3094 2.45813 47.9114 2.74659 48.2375 3.3235C48.5385 3.85024 48.5761 4.45223 48.5761 5.91959V6.47142C48.5761 9.20546 48.689 9.30579 48.8897 9.6695Z" fill="white"/>
<path d="M35.8519 8.79071C35.8519 9.6632 35.1431 10.3705 34.2688 10.3705C33.3945 10.3705 32.6858 9.6632 32.6858 8.79071C32.6858 7.91823 33.3945 7.21094 34.2688 7.21094C35.1431 7.21094 35.8519 7.91823 35.8519 8.79071Z" fill="#0069FF"/>
</svg>
