<svg width="293" height="293" viewBox="0 0 293 293" fill="none" xmlns="http://www.w3.org/2000/svg">
<rect width="292.953" height="292.953" rx="66.7698" fill="#4D66F4"/>
<path d="M245.768 128.891C245.768 138.07 239.383 143.657 227.012 143.657C216.556 143.657 211.607 141.023 211.607 141.023C211.607 141.023 211.767 139.506 211.767 134.638C211.767 129.29 211.607 126.816 211.607 126.816C215.359 133.041 219.828 134.478 224.777 134.478C229.247 134.478 231.082 133.121 231.082 130.886C231.082 128.731 229.965 127.933 227.411 126.736L221.505 123.942C215.439 121.069 211.607 117.477 211.607 110.134C211.607 101.275 217.594 95.927 229.247 95.927C240.261 95.927 243.933 98.4811 243.933 98.4811C243.933 98.4811 243.773 100.237 243.773 105.345C243.773 110.374 243.933 112.608 243.933 112.608C240.9 107.82 237.547 105.026 231.801 105.026C227.65 105.026 225.815 106.064 225.815 108.298C225.815 110.453 227.251 111.331 230.444 112.768L236.031 115.322C242.097 118.116 245.768 121.707 245.768 128.891Z" fill="white"/>
<path d="M208.861 141.661L209.58 143.018C209.58 143.018 206.387 142.859 198.804 142.859C191.142 142.859 187.95 143.018 187.95 143.018L188.668 141.661C189.945 139.347 190.663 138.788 190.663 121.388C190.663 111.81 190.344 109.416 189.626 107.979C189.067 106.782 187.63 105.665 184.996 105.665C179.808 105.665 178.691 110.134 178.691 110.134V121.468C178.691 138.788 179.489 139.347 180.766 141.661L181.484 143.018C181.484 143.018 178.292 142.859 170.709 142.859C163.047 142.859 159.854 143.018 159.854 143.018L160.573 141.661C161.85 139.347 162.568 138.708 162.568 121.308V117.876C162.568 104.068 161.85 101.833 160.573 99.5187L159.854 98.1618L178.452 96.1665L177.973 109.496C180.367 96.0068 189.785 95.8472 193.138 95.8472C198.804 95.8472 202.636 97.6031 204.711 101.354C206.626 104.707 206.866 108.538 206.866 117.876V121.308C206.866 138.708 207.584 139.347 208.861 141.661Z" fill="white"/>
<path d="M156.036 86.1895C156.036 91.4573 152.045 92.5748 146.777 92.5748C141.669 92.5748 137.439 91.5372 137.439 86.5088C137.439 81.241 141.43 80.1235 146.697 80.1235C151.806 80.1235 156.036 81.1611 156.036 86.1895ZM157.552 143.018C157.552 143.018 154.36 142.859 146.777 142.859C139.115 142.859 135.922 143.018 135.922 143.018L136.641 141.661C137.918 139.347 138.636 138.708 138.636 121.308V117.876C138.636 104.068 137.918 101.833 136.641 99.5187L135.922 98.1618L155.557 96.1665C155.557 96.1665 154.839 100.636 154.839 117.796V121.308C154.839 136.074 155.158 138.469 156.834 141.661L157.552 143.018Z" fill="white"/>
<path d="M133.759 119.074C133.759 135.356 125.298 143.896 109.574 143.896C94.0902 143.896 85.8692 135.436 85.8692 120.67C85.8692 104.387 94.3297 95.8472 110.053 95.8472C125.538 95.8472 133.759 104.308 133.759 119.074ZM116.917 119.473C116.917 107.74 115.002 105.106 109.734 105.106C104.386 105.106 102.71 109.336 102.71 120.271C102.71 132.004 104.626 134.638 109.894 134.638C115.241 134.638 116.917 130.407 116.917 119.473Z" fill="white"/>
<path d="M74.354 134.079C82.2557 134.079 84.73 129.928 84.9694 129.529C84.9694 135.835 80.819 143.896 68.0485 143.896C52.2451 143.896 46.7378 133.6 46.7378 120.909C46.7378 104.547 54.7193 95.927 69.8843 95.927C80.3401 95.927 84.1713 99.0398 84.1713 99.0398C84.1713 99.0398 84.0116 101.195 84.0116 105.665C84.0116 110.374 84.1713 114.125 84.1713 114.125C79.6218 106.383 76.6686 105.425 72.9971 105.425C65.3348 105.425 63.5789 112.289 63.5789 119.473C63.5789 127.135 65.3348 134.079 74.354 134.079Z" fill="white"/>
<g filter="url(#filter0_d_971_13278)">
<path d="M103.503 197.961C103.503 206.294 96.7478 213.05 88.4144 213.05C80.081 213.05 73.3254 206.294 73.3254 197.961C73.3254 189.628 80.081 182.872 88.4144 182.872C96.7478 182.872 103.503 189.628 103.503 197.961Z" fill="white"/>
<path d="M88.4143 182.153C97.1445 182.153 104.222 189.231 104.222 197.961C104.222 206.691 97.1445 213.769 88.4143 213.769C79.6841 213.768 72.6067 206.691 72.6067 197.961C72.6067 189.231 79.6842 182.153 88.4143 182.153Z" stroke="#00084F" stroke-width="1.43704"/>
</g>
<path d="M245.771 174.82C245.771 181.425 243.78 190.745 224.598 190.745C219.622 190.745 216.183 190.112 216.183 190.112C216.183 193.007 217.541 202.236 229.756 202.236C241.971 202.236 244.866 197.531 245.138 197.079C245.138 204.77 239.347 213.004 223.693 213.004C204.059 213.004 197.363 201.422 197.363 186.492C197.363 169.391 204.873 158.533 222.517 158.533C228.941 158.533 245.771 158.805 245.771 174.82ZM228.489 174.277C228.489 171.02 227.313 167.31 222.698 167.31C215.731 167.31 215.64 173.463 215.64 181.244C215.64 181.244 217.088 181.606 220.617 181.606C225.865 181.606 228.489 180.068 228.489 174.277Z" fill="white"/>
<path d="M194.473 210.47L195.287 212.008C195.287 212.008 191.668 211.827 183.072 211.827C174.386 211.827 170.766 212.008 170.766 212.008L171.581 210.47C173.028 207.846 173.843 207.213 173.843 187.488C173.843 176.63 173.481 173.915 172.666 172.287C172.033 170.929 170.404 169.663 167.419 169.663C161.537 169.663 160.27 174.73 160.27 174.73V187.397C160.27 207.122 161.175 207.846 162.623 210.47L163.437 212.008C163.437 212.008 159.818 211.827 151.222 211.827C142.536 211.827 138.826 212.008 138.826 212.008L139.641 210.47C141.088 207.846 141.903 207.213 141.903 187.488C141.903 176.63 141.541 173.915 140.726 172.287C140.093 170.929 138.464 169.663 135.478 169.663C129.597 169.663 128.421 174.73 128.421 174.73V187.397C128.421 207.032 129.235 207.846 130.683 210.47L131.497 212.008C131.497 212.008 127.878 211.827 119.282 211.827C110.596 211.827 106.977 212.008 106.977 212.008L107.791 210.47C109.239 207.846 110.053 207.122 110.053 187.397V183.506C110.053 167.853 109.239 165.32 107.791 162.696L106.977 161.157L128.149 158.895L127.606 174.006C130.321 158.714 140.998 158.533 144.798 158.533C151.222 158.533 155.565 160.614 157.918 164.777C159.728 167.943 159.909 171.834 159.909 171.834C162.985 158.714 173.028 158.443 176.648 158.443C183.072 158.443 187.415 160.524 189.768 164.686C191.939 168.486 192.211 172.83 192.211 183.416V187.397C192.211 207.122 193.025 207.846 194.473 210.47Z" fill="white"/>
<defs>
<filter id="filter0_d_971_13278" x="68.2958" y="181.435" width="36.6446" height="34.4888" filterUnits="userSpaceOnUse" color-interpolation-filters="sRGB">
<feFlood flood-opacity="0" result="BackgroundImageFix"/>
<feColorMatrix in="SourceAlpha" type="matrix" values="0 0 0 0 0 0 0 0 0 0 0 0 0 0 0 0 0 0 127 0" result="hardAlpha"/>
<feOffset dx="-3.59261" dy="1.43704"/>
<feComposite in2="hardAlpha" operator="out"/>
<feColorMatrix type="matrix" values="0 0 0 0 0 0 0 0 0 0.027451 0 0 0 0 0.282353 0 0 0 1 0"/>
<feBlend mode="normal" in2="BackgroundImageFix" result="effect1_dropShadow_971_13278"/>
<feBlend mode="normal" in="SourceGraphic" in2="effect1_dropShadow_971_13278" result="shape"/>
</filter>
</defs>
</svg>
