<svg width="293" height="293" viewBox="0 0 293 293" fill="none" xmlns="http://www.w3.org/2000/svg">
<rect width="292.953" height="292.953" rx="66.7698" fill="#0D0D0D"/>
<path d="M241.75 128.851C241.75 137.691 235.601 143.071 223.687 143.071C213.618 143.071 208.852 140.535 208.852 140.535C208.852 140.535 209.006 139.074 209.006 134.385C209.006 129.236 208.852 126.853 208.852 126.853C212.465 132.848 216.769 134.232 221.535 134.232C225.839 134.232 227.607 132.925 227.607 130.773C227.607 128.697 226.531 127.929 224.071 126.776L218.383 124.086C212.542 121.318 208.852 117.859 208.852 110.788C208.852 102.256 214.617 97.106 225.839 97.106C236.447 97.106 239.982 99.5656 239.982 99.5656C239.982 99.5656 239.829 101.257 239.829 106.176C239.829 111.019 239.982 113.171 239.982 113.171C237.061 108.559 233.833 105.869 228.299 105.869C224.302 105.869 222.534 106.868 222.534 109.02C222.534 111.095 223.918 111.941 226.992 113.324L232.373 115.784C238.214 118.474 241.75 121.933 241.75 128.851Z" fill="white"/>
<path d="M206.207 141.15L206.899 142.456C206.899 142.456 203.825 142.303 196.522 142.303C189.143 142.303 186.069 142.456 186.069 142.456L186.761 141.15C187.99 138.92 188.682 138.382 188.682 121.626C188.682 112.402 188.375 110.096 187.683 108.713C187.145 107.56 185.761 106.483 183.225 106.483C178.229 106.483 177.153 110.788 177.153 110.788V121.703C177.153 138.382 177.921 138.92 179.151 141.15L179.843 142.456C179.843 142.456 176.768 142.303 169.466 142.303C162.087 142.303 159.012 142.456 159.012 142.456L159.704 141.15C160.934 138.92 161.626 138.306 161.626 121.549V118.244C161.626 104.946 160.934 102.794 159.704 100.565L159.012 99.2582L176.922 97.3366L176.461 110.173C178.767 97.1828 187.837 97.0291 191.065 97.0291C196.522 97.0291 200.212 98.7201 202.21 102.333C204.055 105.561 204.286 109.251 204.286 118.244V121.549C204.286 138.306 204.978 138.92 206.207 141.15Z" fill="white"/>
<path d="M155.335 87.7285C155.335 92.8015 151.492 93.8776 146.419 93.8776C141.499 93.8776 137.425 92.8784 137.425 88.0359C137.425 82.9628 141.269 81.8867 146.342 81.8867C151.261 81.8867 155.335 82.886 155.335 87.7285ZM156.795 142.456C156.795 142.456 153.721 142.303 146.419 142.303C139.04 142.303 135.965 142.456 135.965 142.456L136.657 141.15C137.887 138.92 138.578 138.306 138.578 121.549V118.244C138.578 104.946 137.887 102.794 136.657 100.565L135.965 99.2582L154.874 97.3366C154.874 97.3366 154.182 101.641 154.182 118.167V121.549C154.182 135.769 154.489 138.075 156.104 141.15L156.795 142.456Z" fill="white"/>
<path d="M133.881 119.397C133.881 135.077 125.733 143.302 110.591 143.302C95.6793 143.302 87.7622 135.154 87.7622 120.934C87.7622 105.254 95.9099 97.0291 111.052 97.0291C125.964 97.0291 133.881 105.177 133.881 119.397ZM117.663 119.781C117.663 108.482 115.818 105.945 110.745 105.945C105.595 105.945 103.981 110.019 103.981 120.55C103.981 131.849 105.825 134.385 110.899 134.385C116.049 134.385 117.663 130.312 117.663 119.781Z" fill="white"/>
<path d="M76.6726 133.847C84.2823 133.847 86.6651 129.85 86.8957 129.466C86.8957 135.538 82.8987 143.302 70.6003 143.302C55.3811 143.302 50.0774 133.386 50.0774 121.165C50.0774 105.407 57.7639 97.106 72.3682 97.106C82.4375 97.106 86.127 100.104 86.127 100.104C86.127 100.104 85.9733 102.179 85.9733 106.483C85.9733 111.019 86.127 114.631 86.127 114.631C81.7457 107.175 78.9017 106.253 75.3659 106.253C67.9869 106.253 66.2959 112.863 66.2959 119.781C66.2959 127.16 67.9869 133.847 76.6726 133.847Z" fill="white"/>
<g filter="url(#filter0_d_1064_13769)">
<path d="M104.744 195.368C104.744 203.393 98.2379 209.899 90.2126 209.899C82.1872 209.899 75.6814 203.393 75.6814 195.368C75.6814 187.342 82.1872 180.836 90.2126 180.836C98.2379 180.836 104.744 187.342 104.744 195.368Z" fill="#4D66F4"/>
<path d="M90.2126 180.144C98.6201 180.144 105.435 186.96 105.435 195.368C105.435 203.775 98.6201 210.59 90.2126 210.59C81.8052 210.59 74.9891 203.775 74.989 195.368C74.989 186.96 81.8051 180.144 90.2126 180.144Z" stroke="#00084F" stroke-width="1.38392"/>
</g>
<path d="M241.75 173.083C241.75 179.444 239.833 188.419 221.36 188.419C216.568 188.419 213.257 187.809 213.257 187.809C213.257 190.597 214.564 199.485 226.327 199.485C238.091 199.485 240.879 194.954 241.14 194.519C241.14 201.925 235.564 209.855 220.489 209.855C201.58 209.855 195.132 198.701 195.132 184.324C195.132 167.855 202.364 157.398 219.356 157.398C225.543 157.398 241.75 157.66 241.75 173.083ZM225.107 172.56C225.107 169.423 223.974 165.85 219.53 165.85C212.821 165.85 212.734 171.776 212.734 179.27C212.734 179.27 214.128 179.618 217.526 179.618C222.58 179.618 225.107 178.137 225.107 172.56Z" fill="white"/>
<path d="M192.348 207.415L193.133 208.896C193.133 208.896 189.647 208.722 181.369 208.722C173.004 208.722 169.518 208.896 169.518 208.896L170.303 207.415C171.697 204.888 172.481 204.278 172.481 185.282C172.481 174.826 172.133 172.211 171.348 170.643C170.738 169.336 169.17 168.116 166.294 168.116C160.63 168.116 159.411 172.996 159.411 172.996V185.195C159.411 204.191 160.282 204.888 161.676 207.415L162.46 208.896C162.46 208.896 158.975 208.722 150.697 208.722C142.332 208.722 138.759 208.896 138.759 208.896L139.543 207.415C140.937 204.888 141.722 204.278 141.722 185.282C141.722 174.826 141.373 172.211 140.589 170.643C139.979 169.336 138.411 168.116 135.535 168.116C129.871 168.116 128.738 172.996 128.738 172.996V185.195C128.738 204.104 129.523 204.888 130.917 207.415L131.701 208.896C131.701 208.896 128.215 208.722 119.937 208.722C111.572 208.722 108.087 208.896 108.087 208.896L108.871 207.415C110.265 204.888 111.049 204.191 111.049 185.195V181.448C111.049 166.373 110.265 163.933 108.871 161.406L108.087 159.925L128.477 157.747L127.954 172.299C130.568 157.572 140.85 157.398 144.51 157.398C150.697 157.398 154.879 159.402 157.145 163.411C158.888 166.46 159.062 170.207 159.062 170.207C162.025 157.572 171.697 157.311 175.182 157.311C181.369 157.311 185.552 159.315 187.817 163.323C189.909 166.983 190.17 171.166 190.17 181.361V185.195C190.17 204.191 190.954 204.888 192.348 207.415Z" fill="white"/>
<defs>
<filter id="filter0_d_1064_13769" x="70.8377" y="179.453" width="35.29" height="33.214" filterUnits="userSpaceOnUse" color-interpolation-filters="sRGB">
<feFlood flood-opacity="0" result="BackgroundImageFix"/>
<feColorMatrix in="SourceAlpha" type="matrix" values="0 0 0 0 0 0 0 0 0 0 0 0 0 0 0 0 0 0 127 0" result="hardAlpha"/>
<feOffset dx="-3.4598" dy="1.38392"/>
<feComposite in2="hardAlpha" operator="out"/>
<feColorMatrix type="matrix" values="0 0 0 0 0 0 0 0 0 0.027451 0 0 0 0 0.282353 0 0 0 1 0"/>
<feBlend mode="normal" in2="BackgroundImageFix" result="effect1_dropShadow_1064_13769"/>
<feBlend mode="normal" in="SourceGraphic" in2="effect1_dropShadow_1064_13769" result="shape"/>
</filter>
</defs>
</svg>
